<svg viewBox="0 0 900 900" xmlns="http://www.w3.org/2000/svg">
  <rect x="50" y="50" width="800" height="800" fill="white" stroke="black" stroke-width="4"/>

  <line x1="50" y1="150" x2="850" y2="150" stroke="black" />
  <line x1="50" y1="250" x2="850" y2="250" stroke="black" />
  <line x1="50" y1="350" x2="850" y2="350" stroke="black" />
  <line x1="50" y1="450" x2="850" y2="450" stroke="black" />
  <line x1="50" y1="550" x2="850" y2="550" stroke="black" />
  <line x1="50" y1="650" x2="850" y2="650" stroke="black" />
  <line x1="50" y1="750" x2="850" y2="750" stroke="black" />

  <line x1="150" y1="50" x2="150" y2="850" stroke="black" />
  <line x1="250" y1="50" x2="250" y2="850" stroke="black" />
  <line x1="350" y1="50" x2="350" y2="850" stroke="black" />
  <line x1="450" y1="50" x2="450" y2="850" stroke="black" />
  <line x1="550" y1="50" x2="550" y2="850" stroke="black" />
  <line x1="650" y1="50" x2="650" y2="850" stroke="black" />
  <line x1="750" y1="50" x2="750" y2="850" stroke="black" />

  <circle cx="250" cy="250" r="6"/>
  <circle cx="650" cy="250" r="6"/>
  <circle cx="250" cy="650" r="6"/>
  <circle cx="650" cy="650" r="6"/>
  <circle cx="450" cy="450" r="6"/>
</svg>
